<svg display="none" xmlns="http://www.w3.org/2000/svg">
    <symbol id="arrow" viewBox="0 0 40 40" fill="none" xmlns="http://www.w3.org/2000/svg">
        <path d="M37.123 17.324L17.3241 37.123" stroke="#C3E0EB" stroke-width="7"/>
        <path d="M21.9199 36.7695L2.47449 17.3241" stroke="#C3E0EB" stroke-width="7"/>
    </symbol>

    <symbol id="logo" viewBox="0 0 322 250" xmlns="http://www.w3.org/2000/svg">
        <g clip-path="url(#clip0)">
            <path d="M296.416 245.208L321.285 245.08V62.9695C322.155 50.1429 321.486 30.5182 309.189 16.244C295.601 0.668793 275.43 0.458069 272.317 0.467231C246.588 0.0915945 224.411 20.6233 223.239 46.524C222.864 80.8352 223.12 99.1223 223.239 124.675C222.378 131.008 219.222 136.803 214.37 140.96C209.519 145.117 203.31 147.346 196.924 147.222C191.647 147.162 186.54 145.35 182.405 142.069C178.27 138.789 175.341 134.227 174.079 129.1C173.017 125.344 173.621 124.217 172.403 117.867C171.749 114.552 170.899 111.279 169.858 108.064C165.975 96.5753 156.416 88.4212 155.601 87.7524C141.098 75.6312 123.609 76.8406 120.469 77.1338C94.4097 79.3418 77.4339 100.68 75.447 120.451C74.8518 139.691 76.1337 176.558 75.392 190.585C74.6962 204.328 74.4764 206.289 72.462 210.32C67.4077 220.654 59.0297 225.464 48.7838 224.182C34.4359 222.588 26.8087 208.881 26.067 201.534C25.7506 198.45 25.5886 195.353 25.5817 192.253C25.5817 187.369 25.2704 179.765 25.2246 169.87C25.774 113.195 27.1566 113.442 25.8289 2.6844"
                  fill="none" stroke="#50A097" stroke-width="4"/>
            <path d="M0.915243 2.71191C0.915243 9.56499 0.915243 15.0255 0.915243 18.223C0.750429 130.273 0.686335 186.252 0.585616 187.992C0.352368 191.864 0.462676 195.749 0.915243 199.601C1.73931 206.756 3.66214 223.504 17.3234 236.248C35.462 253.656 65.3848 254.434 84.3659 235.937C94.6942 226.078 99.135 213.279 99.4555 205.62C99.6477 201.186 99.7942 186.966 99.7759 183.833C99.895 146.672 99.7759 152.005 99.7759 129.576C98.5124 114.917 107.843 102.219 123.106 101.532C136.154 101.12 145.585 108.284 148.332 123.594C149.641 130.877 150.062 136.759 154.302 145.344C160.162 157.254 173.274 165.83 180.104 168.249C202.647 177.2 224.86 165.5 233.366 156.696C233.366 156.696 248.932 140.534 247.696 121.01C247.568 119.845 247.543 118.671 247.623 117.501C247.654 117.111 247.654 116.719 247.623 116.328C247.577 116.264 247.623 115.953 247.623 115.861C247.623 115.504 247.037 66.8633 248.117 46.5606C248.225 43.6246 248.919 40.7398 250.159 38.0767C254.902 28.0078 266.448 24.6088 271.942 24.9111C280.549 24.9844 293.313 29.4921 296.426 46.5423C296.549 47.3897 296.629 48.2429 296.664 49.0985C297.58 93.7351 296.664 107.734 296.664 107.734V245.648"
                  fill="none" stroke="#50A097" stroke-width="4"/>
            <path d="M169.172 195.505H188.757C199.58 195.505 203.691 201.158 203.691 206.985C203.691 212.033 201.008 215.322 197.987 216.706C200.068 217.474 201.858 218.871 203.11 220.703C204.362 222.535 205.013 224.711 204.973 226.93C204.973 234.599 198.948 240.352 189.407 240.352H169.172V195.505ZM187.64 213.197C192.218 213.197 194.15 211.126 194.15 207.974C194.15 204.823 191.66 203 187.915 203H178.685V213.197H187.64ZM178.685 232.886H187.43C192.667 232.886 195.038 230.687 195.038 226.628C195.038 222.963 192.704 220.709 187.375 220.709H178.685V232.886Z"/>
            <path d="M244.674 220.975H223.239V232.373H246.881L245.737 240.316H213.836V195.505H245.617V203.458H223.239V213.068H244.674V220.975Z"/>
            <path d="M255.113 195.505H264.81V232.409H287.133L286.025 240.352H255.113V195.505Z"/>
            <path d="M44.9755 41.4665C45.9918 45.9742 49.224 47.944 54.4156 47.944C59.6073 47.944 61.7956 45.9009 61.7956 42.6209C61.7956 38.9562 59.6347 37.3895 51.9709 35.6029C39.7747 32.7353 36.7623 28.2734 36.7623 22.2449C36.7623 14.4299 42.604 9.11597 53.2436 9.11597C65.1468 9.11597 69.8806 15.5293 70.5216 22.08H60.7335C60.2665 19.3315 58.7374 16.3172 52.9598 16.3172C49.0317 16.3172 46.6511 17.948 46.6511 21.1272C46.6511 24.3064 48.5556 25.5157 55.8074 27.1923C68.8368 30.2707 71.6936 35.1174 71.6936 41.4024C71.6936 49.5931 65.5039 55.2093 53.6557 55.2093C42.2744 55.2093 36.2587 49.6114 35.2148 41.4665H44.9755Z"/>
            <path d="M78.8438 54.614V9.7666H90.8568C96.4605 19.8447 106.807 38.0035 108.867 42.8868H108.959C108.455 38.2051 108.464 30.4175 108.464 23.0605V9.7666H117.245V54.6598H105.882C101.066 45.901 89.6024 25.0303 87.3774 19.8447H87.2584C87.5789 23.7659 87.6887 32.9828 87.6887 41.0086V54.614H78.8438Z"/>
            <path d="M134.231 41.4665C135.256 45.9742 138.488 47.944 143.671 47.944C148.853 47.944 151.078 45.9009 151.078 42.6209C151.078 38.9562 148.917 37.3895 141.253 35.6029C129.048 32.7353 126.036 28.2734 126.036 22.2449C126.036 14.4299 131.877 9.11597 142.517 9.11597C154.42 9.11597 159.154 15.5293 159.804 22.08H149.989C149.522 19.3315 147.993 16.3172 142.224 16.3172C138.287 16.3172 135.915 17.948 135.915 21.1272C135.915 24.3064 137.811 25.5157 145.072 27.1923C158.11 30.2707 160.967 35.1174 160.967 41.4391C160.967 49.6298 154.777 55.246 142.929 55.246C131.557 55.246 125.532 49.6481 124.488 41.5032L134.231 41.4665Z"/>
        </g>
        <defs>
            <clipPath id="clip0">
                <rect width="322" height="250" fill="white"/>
            </clipPath>
        </defs>
    </symbol>

    <symbol id="solution" viewBox="0 0 549 442" fill="none" xmlns="http://www.w3.org/2000/svg">
        <path d="M34 31.5H484" stroke="#145B86" stroke-width="7" stroke-linejoin="round"/>
        <rect y="35" width="54" height="27" fill="white"/>
        <rect x="4" width="54" height="27" fill="white"/>
        <circle cx="35.5" cy="31.5" r="12.5" fill="#145B86"/>
        <circle cx="161.5" cy="32.5" r="9.5" fill="#145B86"/>
        <circle cx="117.5" cy="32.5" r="9.5" fill="#145B86"/>
        <circle cx="212.5" cy="32.5" r="9.5" fill="#145B86"/>
        <rect x="488.045" y="31.2134" width="27" height="7" rx="3.5" transform="rotate(135 488.045 31.2134)"
              fill="#145B86"/>
        <rect x="468.949" y="12" width="27" height="7" rx="3.5" transform="rotate(45 468.949 12)" fill="#145B86"/>
        <rect x="488.076" y="152.99" width="27" height="7" rx="3.5" transform="rotate(135 488.076 152.99)"
              fill="#145B86"/>
        <rect x="468.98" y="133.776" width="27" height="7" rx="3.5" transform="rotate(45 468.98 133.776)"
              fill="#145B86"/>
        <rect x="487.656" y="267.639" width="27" height="7" rx="3.5" transform="rotate(135 487.656 267.639)"
              fill="#145B86"/>
        <rect x="468.561" y="248.425" width="27" height="7" rx="3.5" transform="rotate(45 468.561 248.425)"
              fill="#145B86"/>
        <path d="M482.793 153.639L287.14 153.64C272.384 153.64 259.039 144.872 253.181 131.329L210 31.5L157 31.5"
              stroke="#145B86" stroke-width="7"/>
        <path d="M482.209 267.725L286.502 267.726C271.774 267.726 258.448 258.99 252.573 245.483L159.5 31.5L116 31.5"
              stroke="#145B86" stroke-width="7"/>
        <rect x="487.986" y="386.034" width="27" height="7" rx="3.5" transform="rotate(135 487.986 386.034)"
              fill="#145B86"/>
        <rect x="468.891" y="366.82" width="27" height="7" rx="3.5" transform="rotate(45 468.891 366.82)"
              fill="#145B86"/>
        <path d="M482.539 386.12L287.352 386.121C272.361 386.121 258.851 377.075 253.141 363.213L116.5 31.5L79 31.5"
              stroke="#145B86" stroke-width="7"/>
    </symbol>

    <symbol id="line-arrow" viewBox="0 0 15 15" xmlns="http://www.w3.org/2000/svg">
        <rect x="5.65625" y="13.0711" width="10" height="2" transform="rotate(-45 5.65625 13.0711)"/>
        <rect x="7.07031" y="14.4853" width="10" height="2" transform="rotate(-135 7.07031 14.4853)"/>
    </symbol>

    <symbol id="solution-mb" viewBox="0 0 166 224" fill="none" xmlns="http://www.w3.org/2000/svg">
        <path d="M66 8C66 12.4183 62.4183 16 58 16C53.5817 16 50 12.4183 50 8C50 3.58172 53.5817 0 58 0C62.4183 0 66 3.58172 66 8Z"
              fill="#145B86"/>
        <rect x="120.725" y="161.193" width="19.9452" height="5.17097" rx="2.58549"
              transform="rotate(135 120.725 161.193)" fill="#145B86"/>
        <rect x="106.619" y="147" width="19.9452" height="5.17097" rx="2.58549" transform="rotate(45 106.619 147)"
              fill="#145B86"/>
        <rect x="120.762" y="222.193" width="19.9452" height="5.17097" rx="2.58549"
              transform="rotate(135 120.762 222.193)" fill="#145B86"/>
        <rect x="106.656" y="208" width="19.9452" height="5.17097" rx="2.58549" transform="rotate(45 106.656 208)"
              fill="#145B86"/>
        <rect x="120.725" y="104.193" width="19.9452" height="5.17097" rx="2.58549"
              transform="rotate(135 120.725 104.193)" fill="#145B86"/>
        <rect x="106.619" y="90" width="19.9452" height="5.17097" rx="2.58549" transform="rotate(45 106.619 90)"
              fill="#145B86"/>
        <path d="M113.998 162L75.2953 161.81L58.534 161.727L57.4996 161.722" stroke="#145B86" stroke-width="5"/>
        <path d="M114.496 104.169L75.7934 103.979L59.0321 103.897L57.9976 103.892" stroke="#145B86" stroke-width="5"/>
        <rect x="120.73" y="47.1931" width="19.9452" height="5.17097" rx="2.58549"
              transform="rotate(135 120.73 47.1931)" fill="#145B86"/>
        <rect x="106.625" y="33" width="19.9452" height="5.17097" rx="2.58549" transform="rotate(45 106.625 33)"
              fill="#145B86"/>
        <path d="M114.502 47.1691L75.7992 46.979L59.038 46.8966L58.0035 46.8916" stroke="#145B86" stroke-width="5"/>
        <path d="M113.496 222.169L74.7934 221.979L60.0223 221.906C58.9216 221.901 58.0321 221.007 58.0321 219.906L58.0282 4"
              stroke="#145B86" stroke-width="5"/>
    </symbol>

    <symbol id="data-center" viewBox="0 0 40 40" xmlns="http://www.w3.org/2000/svg">
        <path d="M0 4C0 1.8 1.8 0 4 0H36C37.0609 0 38.0783 0.421427 38.8284 1.17157C39.5786 1.92172 40 2.93913 40 4V8C40 9.06087 39.5786 10.0783 38.8284 10.8284C38.0783 11.5786 37.0609 12 36 12H4C2.93913 12 1.92172 11.5786 1.17157 10.8284C0.421427 10.0783 0 9.06087 0 8V4ZM0 18C0 15.8 1.8 14 4 14H36C37.0609 14 38.0783 14.4214 38.8284 15.1716C39.5786 15.9217 40 16.9391 40 18V22C40 23.0609 39.5786 24.0783 38.8284 24.8284C38.0783 25.5786 37.0609 26 36 26H4C2.93913 26 1.92172 25.5786 1.17157 24.8284C0.421427 24.0783 0 23.0609 0 22V18ZM0 32C0 29.8 1.8 28 4 28H36C37.0609 28 38.0783 28.4214 38.8284 29.1716C39.5786 29.9217 40 30.9391 40 32V36C40 37.0609 39.5786 38.0783 38.8284 38.8284C38.0783 39.5786 37.0609 40 36 40H4C2.93913 40 1.92172 39.5786 1.17157 38.8284C0.421427 38.0783 0 37.0609 0 36V32ZM24 4V8H28V4H24ZM32 4V8H36V4H32ZM24 18V22H28V18H24ZM32 18V22H36V18H32ZM24 32V36H28V32H24ZM32 32V36H36V32H32Z"/>
    </symbol>

    <symbol id="web" viewBox="0 0 42 42" xmlns="http://www.w3.org/2000/svg">
        <path d="M40.0312 4.04712H1.96875C0.885938 4.04712 0 4.93306 0 6.01587V35.9848C0 37.0676 0.885938 37.9536 1.96875 37.9536H40.0312C41.1141 37.9536 42 37.0676 42 35.9848V6.01587C42 4.93306 41.1141 4.04712 40.0312 4.04712ZM16.5723 8.55884H37.4824V12.0514H14.2912L16.5723 8.55884ZM24.4296 20.0242V17.4852L33.5193 21.4161V23.5843L24.4296 27.5428V24.9854L30.7729 22.4917L24.4296 20.0242ZM23.5889 15.5689L20.2729 29.2675H18.4032L21.6825 15.5689H23.5889ZM17.5619 24.9756V27.533L8.48072 23.5837V21.3971L17.5619 17.4661V20.0419L11.2278 22.4635L17.5619 24.9756ZM11.3334 9.17768C11.9306 9.17768 12.4149 9.66134 12.4149 10.2579C12.4149 10.8544 11.9306 11.3381 11.3334 11.3381C10.7362 11.3381 10.2519 10.8544 10.2519 10.2579C10.2513 9.66134 10.7356 9.17768 11.3334 9.17768ZM8.46628 9.17768C9.06347 9.17768 9.54778 9.66134 9.54778 10.2579C9.54778 10.8544 9.06347 11.3381 8.46628 11.3381C7.86909 11.3381 7.38478 10.8544 7.38478 10.2579C7.38478 9.66134 7.86909 9.17768 8.46628 9.17768ZM5.59912 9.17768C6.19631 9.17768 6.68062 9.66134 6.68062 10.2579C6.68062 10.8544 6.19631 11.3381 5.59912 11.3381C5.00194 11.3381 4.51762 10.8544 4.51762 10.2579C4.51762 9.66134 5.00194 9.17768 5.59912 9.17768ZM1.47131 35.4861L4.44084 33.2306H9.66066L6.70097 35.4861H1.47131ZM8.97356 35.4861L11.9431 33.2306H30.0562L33.0258 35.4861H8.97356ZM35.2984 35.4861L32.3387 33.2306H37.5585L40.5287 35.4861H35.2984Z"/>
    </symbol>

    <symbol id="administration" viewBox="0 0 35 35" xmlns="http://www.w3.org/2000/svg">
        <g clip-path="url(#clip0)">
            <path fill-rule="evenodd" clip-rule="evenodd"
                  d="M31.5 7H29.75V21C29.75 21.9625 28.9625 22.75 28 22.75H7V24.5C7 26.425 8.575 28 10.5 28H28L35 35V10.5C35 8.575 33.425 7 31.5 7ZM26.25 15.75V3.5C26.25 1.575 24.675 0 22.75 0H3.5C1.575 0 0 1.575 0 3.5V26.25L7 19.25H22.75C24.675 19.25 26.25 17.675 26.25 15.75Z"/>
        </g>
        <defs>
            <clipPath id="clip0">
                <rect width="35" height="35" fill="white"/>
            </clipPath>
        </defs>
    </symbol>

    <symbol id="integration" viewBox="0 0 32 32" xmlns="http://www.w3.org/2000/svg">
        <path d="M31.6046 1.72901C31.3409 1.46544 31.0283 1.33321 30.6671 1.33321C30.306 1.33321 29.9939 1.46544 29.7296 1.72901L27.0215 4.41691C25.5354 3.01396 23.8338 1.92691 21.9173 1.15626C20.0009 0.385533 18.0281 0.000244141 16.0003 0.000244141C12.1806 0.000244141 8.84747 1.15633 6.00013 3.46901C3.15272 5.7814 1.2778 8.79848 0.375 12.521V12.6667C0.375 12.8472 0.440893 13.0036 0.572898 13.1354C0.704903 13.2674 0.861061 13.3333 1.04159 13.3333H5.18738C5.49305 13.3333 5.70124 13.1735 5.81245 12.8542C6.39571 11.4654 6.76363 10.653 6.91658 10.4168C7.8887 8.83343 9.18036 7.59029 10.7916 6.68749C12.4029 5.78476 14.139 5.33321 16 5.33321C18.7919 5.33321 21.2154 6.28469 23.2712 8.18749L20.3957 11.0623C20.1325 11.3263 20.0001 11.639 20.0001 12.0001C20.0001 12.3612 20.1324 12.6737 20.3957 12.9376C20.6599 13.2015 20.9725 13.3334 21.3336 13.3334H30.6671C31.0282 13.3334 31.3408 13.2015 31.6046 12.9376C31.8683 12.6737 32.0001 12.3612 32.0001 12.0001V2.66655C32.0001 2.30541 31.8691 1.99302 31.6046 1.72901Z"/>
        <path d="M30.8123 18.6671H26.8123C26.5067 18.6671 26.2984 18.8267 26.1875 19.1463C25.6045 20.5352 25.2361 21.3473 25.0836 21.5835C24.1112 23.1665 22.8194 24.4101 21.2086 25.3128C19.5972 26.2158 17.8612 26.6668 16.0001 26.6668C14.653 26.6668 13.3542 26.4171 12.1044 25.9172C10.8544 25.4168 9.73619 24.7083 8.7502 23.7916L11.6045 20.9375C11.8683 20.6738 12.0003 20.3609 12.0003 20C12.0003 19.639 11.8683 19.3261 11.6045 19.0626C11.3405 18.7984 11.0281 18.6663 10.667 18.6663H1.33348C0.972123 18.6663 0.659587 18.7984 0.395723 19.0626C0.131859 19.3261 0 19.639 0 20.0001V29.3337C0 29.6945 0.131859 30.0073 0.395796 30.2711C0.659879 30.5345 0.972414 30.6672 1.33355 30.6672C1.69461 30.6672 2.007 30.5346 2.27101 30.2711L4.95847 27.5834C6.44467 28.9997 8.13578 30.0903 10.0316 30.8542C11.9275 31.6183 13.8893 31.9999 15.917 31.9999C19.7228 31.9999 23.0421 30.8437 25.8755 28.5313C28.7088 26.2189 30.5699 23.2013 31.4592 19.4792C31.4731 19.4514 31.4797 19.4028 31.4797 19.3336C31.4797 19.1528 31.4135 18.997 31.2816 18.8646C31.1495 18.7333 30.9931 18.6671 30.8123 18.6671Z"/>
    </symbol>

    <symbol id="setting" viewBox="0 0 33 33" xmlns="http://www.w3.org/2000/svg">
        <g clip-path="url(#clip0)">
            <path d="M28.666 18.2412C28.666 17.7437 28.8318 17.2462 28.8318 16.5829C28.8318 15.9196 28.8318 15.4221 28.666 14.9246L32.1484 12.1055C32.4801 11.7739 32.4801 11.4422 32.3142 11.1106L28.9977 5.30653C28.8318 5.1407 28.5002 4.97487 28.0027 5.1407L23.857 6.79899C23.0278 6.13568 22.0328 5.63819 21.0379 5.1407L20.3745 0.829146C20.5404 0.331658 20.0428 0 19.7112 0H13.0781C12.7464 0 12.2489 0.331658 12.2489 0.663316L11.5856 5.1407C10.5906 5.47236 9.76151 6.13568 8.76653 6.79899L4.78664 5.1407C4.28915 4.97487 3.9575 5.1407 3.62577 5.47236L0.309196 11.2764C0.143367 11.4422 0.309196 11.9397 0.640854 12.2714L4.12326 14.9246C4.12326 15.4221 3.95743 15.9196 3.95743 16.5829C3.95743 17.2462 3.95743 17.7437 4.12326 18.2412L0.640854 21.0603C0.309196 21.392 0.309196 21.7236 0.475025 22.0553L3.7916 27.8594C3.95743 28.0252 4.28902 28.191 4.78657 28.0252L8.9323 26.3669C9.76144 27.0302 10.7564 27.5277 11.7514 28.0252L12.4147 32.3367C12.4147 32.6684 12.7464 33.0001 13.2438 33.0001H19.877C20.2087 33.0001 20.7061 32.6683 20.7061 32.3367L21.3695 28.0252C22.3644 27.5277 23.3594 27.0302 24.1885 26.3669L28.3343 28.0252C28.666 28.191 29.1634 28.0252 29.3293 27.6935L32.6459 21.8894C32.8117 21.5578 32.8117 21.0603 32.48 20.8945L28.666 18.2412ZM16.3947 22.3869C13.2439 22.3869 10.5906 19.7337 10.5906 16.5829C10.5906 13.4322 13.2439 10.7789 16.3947 10.7789C19.5454 10.7789 22.1987 13.4322 22.1987 16.5829C22.1987 19.7337 19.5454 22.3869 16.3947 22.3869Z"/>
        </g>
        <defs>
            <clipPath id="clip0">
                <rect width="33" height="33" fill="white"/>
            </clipPath>
        </defs>
    </symbol>

    <symbol id="1s" viewBox="0 0 45 25" xmlns="http://www.w3.org/2000/svg">
        <path d="M10.2273 0.227295V24.7727H4.09091V8.40911H0V2.27275H4.09091V0.227295H10.2273ZM30.2727 10.4546H36.6136C35.5909 4.72729 30.6818 0.227295 24.5455 0.227295C17.7955 0.227295 12.2727 5.75002 12.2727 12.5C12.2727 19.1131 17.5738 24.5549 24.1364 24.7727H45V18.6364H24.5455C18.7207 18.5059 16.7824 12.0962 19.881 8.47244C22.9469 4.91228 28.7429 6.04082 30.2887 10.4989"/>
    </symbol>

    <symbol id="inf-arrow" viewBox="0 0 56 46" fill="none" xmlns="http://www.w3.org/2000/svg">
        <path d="M55.1213 25.1213C56.2929 23.9497 56.2929 22.0503 55.1213 20.8787L36.0294 1.7868C34.8579 0.615223 32.9584 0.615223 31.7868 1.7868C30.6152 2.95837 30.6152 4.85786 31.7868 6.02944L48.7574 23L31.7868 39.9706C30.6152 41.1421 30.6152 43.0416 31.7868 44.2132C32.9584 45.3848 34.8579 45.3848 36.0294 44.2132L55.1213 25.1213ZM0 26L53 26V20L0 20L0 26Z"
              fill="white"/>
    </symbol>

    <symbol id="speed" viewBox="0 0 77 77" fill="none" xmlns="http://www.w3.org/2000/svg">
        <rect width="77" height="77" rx="8" fill="#1D5A7E"/>
        <path d="M63 17H15V65H63V17Z" fill="white" fill-opacity="0.01"/>
        <path d="M45.2975 35.7786C45.2975 35.7786 42.0682 44.8808 40.5337 46.4699C38.9991 48.0591 36.4668 48.1033 34.8777 46.5687C33.2885 45.0341 33.2443 42.5018 34.7789 40.9127C36.3135 39.3236 45.2975 35.7786 45.2975 35.7786Z"
              fill="#2F88FF" stroke="#00A49F" stroke-width="4" stroke-linejoin="round"/>
        <path d="M53.8492 55.8492C57.6495 52.049 60 46.799 60 41C60 29.402 50.598 20 39 20C27.402 20 18 29.402 18 41C18 46.799 20.3505 52.049 24.1508 55.8492"
              stroke="#00A49F" stroke-width="4" stroke-linecap="round" stroke-linejoin="round"/>
        <path d="M39 21V25" stroke="#00A49F" stroke-width="4" stroke-linecap="round" stroke-linejoin="round"/>
        <path d="M53.8449 28.1421L50.7363 30.6593" stroke="#00A49F" stroke-width="4" stroke-linecap="round"
              stroke-linejoin="round"/>
        <path d="M57.5224 44.2328L53.625 43.333" stroke="#00A49F" stroke-width="4" stroke-linecap="round"
              stroke-linejoin="round"/>
        <path d="M20.4766 44.2328L24.374 43.333" stroke="#00A49F" stroke-width="4" stroke-linecap="round"
              stroke-linejoin="round"/>
        <path d="M24.1543 28.1421L27.2629 30.6593" stroke="#00A49F" stroke-width="4" stroke-linecap="round"
              stroke-linejoin="round"/>
    </symbol>

    <symbol id="best" viewBox="0 0 77 77" fill="none" xmlns="http://www.w3.org/2000/svg">
        <rect width="77" height="77" rx="8" fill="#006AA8"/>
        <path d="M66 12H12V66H66V12Z" fill="white" fill-opacity="0.01"/>
        <path d="M14.25 31.575L37.9 22.125L61.5499 31.575L37.9 41.025L14.25 31.575Z" fill="#2F88FF" stroke="#00A49F"
              stroke-width="4" stroke-linejoin="round"/>
        <path d="M61.5508 31.6987V42.0748" stroke="#00A49F" stroke-width="4" stroke-linecap="round"
              stroke-linejoin="round"/>
        <path d="M25 36.5532V50.5498C25 50.5498 30.4114 55.8748 37.9 55.8748C45.3887 55.8748 50.8001 50.5498 50.8001 50.5498V36.5532"
              stroke="#00A49F" stroke-width="4" stroke-linecap="round" stroke-linejoin="round"/>
    </symbol>

    <symbol id="click" viewBox="0 0 77 77" fill="none" xmlns="http://www.w3.org/2000/svg">
        <rect width="77" height="77" rx="8" fill="#1D5A7E"/>
        <path d="M63 15H15V63H63V15Z" fill="white" fill-opacity="0.01"/>
        <path d="M39 19V27" stroke="#00A49F" stroke-width="4" stroke-linecap="round" stroke-linejoin="round"/>
        <path fill-rule="evenodd" clip-rule="evenodd" d="M37 37L57 41L51 45L57 51L51 57L45 51L41 57L37 37Z"
              fill="#2F88FF" stroke="#00A49F" stroke-width="4" stroke-linecap="round" stroke-linejoin="round"/>
        <path d="M53.1412 24.8579L47.4844 30.5148" stroke="#00A49F" stroke-width="4" stroke-linecap="round"
              stroke-linejoin="round"/>
        <path d="M24.8574 53.1423L30.5143 47.4854" stroke="#00A49F" stroke-width="4" stroke-linecap="round"
              stroke-linejoin="round"/>
        <path d="M19 39H27" stroke="#00A49F" stroke-width="4" stroke-linecap="round" stroke-linejoin="round"/>
        <path d="M24.8574 24.8579L30.5143 30.5147" stroke="#00A49F" stroke-width="4" stroke-linecap="round"
              stroke-linejoin="round"/>
    </symbol>

    <symbol id="check" viewBox="0 0 77 77" fill="none" xmlns="http://www.w3.org/2000/svg">
        <rect width="77" height="77" rx="8" fill="#00A49F"/>
        <path d="M63 15H15V63H63V15Z" fill="white" fill-opacity="0.01"/>
        <path d="M38.9996 19L44.2529 22.832L50.7553 22.8197L52.7529 29.0077L58.0207 32.8197L55.9996 39L58.0207 45.1803L52.7529 48.9923L50.7553 55.1803L44.2529 55.168L38.9996 59L33.7463 55.168L27.2439 55.1803L25.2463 48.9923L19.9785 45.1803L21.9996 39L19.9785 32.8197L25.2463 29.0077L27.2439 22.8197L33.7463 22.832L38.9996 19Z"
              fill="#2F88FF" stroke="#022B41" stroke-width="2" stroke-linecap="round" stroke-linejoin="round"/>
        <path d="M32 39L37 44L47 34" stroke="white" stroke-width="2" stroke-linecap="round" stroke-linejoin="round"/>
    </symbol>

    <symbol id="dron" viewBox="0 0 77 77" fill="none" xmlns="http://www.w3.org/2000/svg">
        <rect width="77" height="77" rx="8" fill="#00A49F"/>
        <path d="M63 15H15V63H63V15Z" fill="white" fill-opacity="0.01"/>
        <path d="M52 52L44 44M26 26L34 34L26 26Z" stroke="#022B41" stroke-width="4" stroke-linecap="round"
              stroke-linejoin="round"/>
        <path d="M26 52L34 44M52 26L44 34L52 26Z" stroke="#022B41" stroke-width="4" stroke-linecap="round"
              stroke-linejoin="round"/>
        <path d="M44 34H34V44H44V34Z" fill="#2F88FF" stroke="#022B41" stroke-width="4" stroke-linecap="round"
              stroke-linejoin="round"/>
        <path d="M26 45C24.6155 45 23.2622 45.4105 22.111 46.1797C20.9599 46.9489 20.0627 48.0421 19.5328 49.3212C19.003 50.6003 18.8644 52.0078 19.1345 53.3656C19.4046 54.7235 20.0713 55.9708 21.0503 56.9497C22.0292 57.9287 23.2765 58.5954 24.6344 58.8655C25.9922 59.1356 27.3997 58.997 28.6788 58.4672C29.9579 57.9373 31.0511 57.0401 31.8203 55.889C32.5895 54.7379 33 53.3845 33 52M52 33C53.3845 33 54.7379 32.5895 55.889 31.8203C57.0401 31.0511 57.9373 29.9579 58.4672 28.6788C58.997 27.3997 59.1356 25.9922 58.8655 24.6344C58.5954 23.2765 57.9287 22.0292 56.9498 21.0503C55.9708 20.0713 54.7235 19.4046 53.3656 19.1345C52.0078 18.8644 50.6003 19.003 49.3212 19.5328C48.0421 20.0627 46.9489 20.9599 46.1797 22.111C45.4105 23.2621 45 24.6155 45 26L52 33ZM52 45C53.3845 45 54.7379 45.4105 55.889 46.1797C57.0401 46.9489 57.9373 48.0421 58.4672 49.3212C58.997 50.6003 59.1356 52.0078 58.8655 53.3656C58.5954 54.7235 57.9287 55.9708 56.9498 56.9497C55.9708 57.9287 54.7235 58.5954 53.3656 58.8655C52.0078 59.1356 50.6003 58.997 49.3212 58.4672C48.0421 57.9373 46.9489 57.0401 46.1797 55.889C45.4105 54.7379 45 53.3845 45 52L52 45ZM26 33C24.6155 33 23.2622 32.5895 22.111 31.8203C20.9599 31.0511 20.0627 29.9579 19.5328 28.6788C19.003 27.3997 18.8644 25.9922 19.1345 24.6344C19.4046 23.2765 20.0713 22.0292 21.0503 21.0503C22.0292 20.0713 23.2765 19.4046 24.6344 19.1345C25.9922 18.8644 27.3997 19.003 28.6788 19.5328C29.9579 20.0627 31.0511 20.9599 31.8203 22.111C32.5895 23.2621 33 24.6155 33 26L26 33Z"
              stroke="#022B41" stroke-width="4" stroke-linecap="round" stroke-linejoin="round"/>
    </symbol>

    <symbol id="admin" viewBox="0 0 77 77" fill="none" xmlns="http://www.w3.org/2000/svg">
        <rect width="77" height="77" rx="8" fill="#09817D"/>
        <path d="M63 13H15V61H63V13Z" fill="white" fill-opacity="0.01"/>
        <path d="M39 35C43.9706 35 48 30.9706 48 26C48 21.0294 43.9706 17 39 17C34.0294 17 30 21.0294 30 26C30 30.9706 34.0294 35 39 35Z"
              fill="#2F88FF" stroke="#022B41" stroke-width="4" stroke-linejoin="round"/>
        <path d="M20 57C20 48.5625 26.175 40.6875 31.4 39C31.4 39 36.15 44.0625 39 47.4375L46.6 39C50.875 39.5625 58 48.5625 58 57"
              stroke="#022B41" stroke-width="4" stroke-linejoin="round"/>
        <path d="M17 57H61" stroke="#022B41" stroke-width="4" stroke-linecap="round" stroke-linejoin="round"/>
        <path d="M43.6387 48.55C43.8821 48.55 44.0904 48.5933 44.2637 48.68C44.4404 48.7667 44.5737 48.8833 44.6637 49.03C44.7571 49.1767 44.8037 49.3383 44.8037 49.515C44.8037 49.695 44.7671 49.8667 44.6937 50.03C44.6204 50.1933 44.4904 50.3817 44.3037 50.595C44.1171 50.805 43.8454 51.0717 43.4887 51.395H44.8737L44.7937 52H42.5937V51.44C43.0037 51.0367 43.3021 50.7333 43.4887 50.53C43.6754 50.3233 43.8054 50.1517 43.8787 50.015C43.9554 49.8783 43.9937 49.7383 43.9937 49.595C43.9937 49.4583 43.9537 49.3517 43.8737 49.275C43.7971 49.195 43.6921 49.155 43.5587 49.155C43.4387 49.155 43.3321 49.1833 43.2387 49.24C43.1454 49.2933 43.0471 49.3817 42.9437 49.505L42.4787 49.135C42.6187 48.9517 42.7854 48.8083 42.9787 48.705C43.1754 48.6017 43.3954 48.55 43.6387 48.55ZM47.6053 50.68V51.27H47.2253V52H46.4553L46.4503 51.27H45.0253V50.745L45.9853 48.535L46.6553 48.785L45.8403 50.68H46.4603L46.5453 49.88H47.2253V50.68H47.6053ZM49.1597 47.92L49.8497 48.075L48.6747 52.56L47.9797 52.4L49.1597 47.92ZM52.4624 48.62V49.155L51.2224 52.08L50.5074 51.84L51.6424 49.215H50.2774V48.62H52.4624Z"
              fill="white"/>
    </symbol>

    <symbol id="tel" viewBox="0 0 20 20" xmlns="http://www.w3.org/2000/svg">
        <path d="M10 0C4.48609 0 0 4.48609 0 10C0 15.5139 4.48609 20 10 20C10.9058 20 11.803 19.8791 12.7527 19.6094C14.6765 18.7586 15.7263 16.6589 15.2612 14.6106L15.2808 14.5911C15.5737 14.2993 15.7056 13.7366 15.575 13.3435L15.5188 13.1726C15.387 12.7795 14.9524 12.3694 14.552 12.2595L13.0737 11.8555C12.6734 11.7468 12.1021 11.8933 11.8079 12.1875L11.2732 12.7222C9.32988 12.1961 7.80523 10.6714 7.28031 8.72805L7.815 8.19336C8.10797 7.90039 8.25445 7.3291 8.14582 6.9275L7.74293 5.44922C7.6343 5.04883 7.22168 4.61426 6.82863 4.48242L6.66016 4.42625C6.26586 4.29441 5.70312 4.42746 5.41016 4.72168L4.60938 5.52246C4.46656 5.66406 4.375 6.07055 4.375 6.0718C4.34812 8.61332 5.34426 11.0608 7.14113 12.8589C8.93313 14.6509 11.3721 15.6458 13.905 15.6238C13.9111 15.6238 14.0039 15.603 14.1138 15.5701C14.1211 16.7993 13.4241 17.948 12.334 18.4351C11.5784 18.6438 10.7934 18.75 10 18.75C5.17578 18.75 1.25 14.8242 1.25 10C1.25 5.17578 5.17578 1.25 10 1.25C14.8242 1.25 18.75 5.17578 18.75 10C18.75 11.438 18.4082 12.8137 17.7332 14.0869C17.572 14.3921 17.6892 14.7705 17.9932 14.9316C18.2996 15.0952 18.6768 14.9768 18.8379 14.6729C19.5984 13.2373 20 11.6211 20 10C20 4.48609 15.5139 0 10 0Z"/>
    </symbol>

    <symbol id="email" viewBox="0 0 20 20" xmlns="http://www.w3.org/2000/svg">
        <path d="M10 0L0 7.5V20H20V7.5L10 0ZM13.75 11.2586L10 14.2054L6.25 11.2586V7.5H13.75V11.2586ZM6.73277 13.2275L1.25 17.9273V8.91969L6.73277 13.2275ZM10 15.7947L12.2656 14.0149L17.7893 18.75H2.2107L7.735 14.0149L10 15.7947ZM18.75 8.91969V17.9273L13.2678 13.2275L18.75 8.91969ZM18.2324 7.73684L15 10.2771V6.25H13.75H6.25H5V10.2759L1.76758 7.7368L10 1.5625L18.2324 7.73684ZM12.5 9.375H7.5V8.75H12.5V9.375ZM12.5 10.625H7.5V10H12.5V10.625ZM12.5 11.875H7.5V11.25H12.5V11.875Z"/>
    </symbol>

    <symbol id="close" viewBox="0 0 45 45" fill="none" xmlns="http://www.w3.org/2000/svg">
        <rect x="32.9414" y="33.9414" width="30.7032" height="1" transform="rotate(-135 32.9414 33.9414)" fill="#FF0000"
              fill-opacity="0.28"/>
        <rect x="10.7559" y="33.499" width="31.3747" height="1" transform="rotate(-45 10.7559 33.499)" fill="#FF0000"
              fill-opacity="0.28"/>
    </symbol>
</svg>

